<svg width="96" height="30" viewBox="0 0 96 30" fill="none" xmlns="http://www.w3.org/2000/svg">
<path d="M4.39658 4.35608C2.60838 6.09365 1.26774 8.2889 0.562988 10.7535C0.672346 11.3651 1.19686 14.6134 3.9794 17.0659C6.46627 19.2571 8.41446 19.492 9.87863 19.7755C10.2513 19.8484 11.1646 19.8889 12.3311 19.9132C12.2359 19.9092 11.436 19.8626 10.6745 19.2976C9.14148 18.1574 9.13743 16.5677 9.11515 14.9172C9.09693 13.5786 9.08275 12.0435 9.08275 11.6284C9.08275 10.8325 8.90454 10.3444 7.58617 10.3444C6.55133 10.3444 5.84253 10.4457 5.15398 10.1844C4.58492 9.96977 4.17381 9.53234 4.0118 8.94504C3.89637 8.53192 3.82144 7.8616 3.88017 6.97053C3.9632 5.70482 4.38443 4.39658 4.39658 4.35608Z" fill="#439FF4"/>
<path d="M0.562989 10.7515C0.200489 12.0192 0 13.3639 0 14.7491C0 22.7545 6.49057 29.2471 14.498 29.2471C16.7277 29.2471 18.8399 28.7428 20.7273 27.8416C20.9258 27.7464 21.3632 27.5216 21.3632 27.5216C21.3632 27.5216 21.4908 28.0786 21.507 28.7023C21.5232 29.326 21.4179 29.9862 21.4179 29.9862C21.4179 29.9862 22.5661 29.0992 23.2081 28.0583C23.5179 27.5581 24.1538 26.4787 24.4941 25.211C24.8748 23.7934 24.9396 22.6532 24.8626 21.7905C24.729 20.298 23.9675 19.8686 22.7909 19.8788C20.9116 19.897 11.3428 20.059 9.88066 19.7775C8.41648 19.494 6.4683 19.2611 3.98142 17.0699C1.19483 14.6134 0.672346 11.361 0.562989 10.7515Z" fill="#1764C0"/>
<path d="M24.6034 25.6301C26.3916 23.8925 27.7323 21.6973 28.437 19.2327C28.3277 18.6211 27.8032 15.3728 25.0206 12.9203C22.5338 10.7291 20.5856 10.4942 19.1214 10.2107C18.7488 10.1378 17.8354 10.0973 16.6689 10.073C16.7641 10.077 17.5641 10.1236 18.3255 10.6886C19.8585 11.8288 19.8626 13.4185 19.8849 15.069C19.9031 16.4076 19.9173 17.9427 19.9173 18.3578C19.9173 19.1537 20.0955 19.6418 21.4138 19.6418C22.4487 19.6418 23.1575 19.5405 23.846 19.8018C24.4151 20.0164 24.8262 20.4539 24.9882 21.0412C25.1037 21.4543 25.1786 22.1246 25.1199 23.0157C25.0368 24.2814 24.6156 25.5896 24.6034 25.6301Z" fill="#439FF4"/>
<path d="M28.437 19.2348C28.7995 17.967 29 16.6223 29 15.2371C29 7.22975 22.5094 0.739176 14.502 0.739176C12.2723 0.739176 10.1601 1.24344 8.27267 2.14462C8.07421 2.2398 7.63678 2.46459 7.63678 2.46459C7.63678 2.46459 7.50919 1.90768 7.49299 1.28394C7.47679 0.660196 7.5821 0 7.5821 0C7.5821 0 6.43384 0.887011 5.79187 1.92793C5.48203 2.42814 4.84613 3.50754 4.50591 4.77528C4.12518 6.19288 4.06038 7.33303 4.13733 8.19574C4.27099 9.68827 5.03245 10.1176 6.20905 10.1075C8.08838 10.0892 17.6572 9.92723 19.1193 10.2087C20.5835 10.4922 22.5317 10.7251 25.0186 12.9163C27.8031 15.3708 28.3256 18.6232 28.435 19.2307L28.437 19.2348Z" fill="#1764C0"/>
<g clip-path="url(#clip0_1847_2008)">
<path d="M42.6906 6C42.1006 6 41.6233 6.46295 41.5873 7.0431H41.5827V7.08828C41.5827 7.09614 41.5801 7.104 41.5801 7.11186C41.5801 7.11971 41.582 7.12757 41.5827 7.13543V19.9296H48.0699V19.9224C48.6526 19.8884 49.1156 19.411 49.1156 18.8191C49.1156 18.2271 48.6526 17.7498 48.0699 17.7157V17.7112H48.0293C48.0214 17.7112 48.0135 17.7085 48.0057 17.7085C47.9978 17.7085 47.99 17.7105 47.9821 17.7112H43.8005V7.0431H43.7933C43.7573 6.46295 43.28 6 42.6906 6Z" fill="white"/>
<path d="M51.3333 11.1048C50.742 11.1048 50.262 11.5697 50.228 12.1532H50.2253V12.1722C50.2253 12.1872 50.2208 12.2023 50.2208 12.2173C50.2208 12.2331 50.2247 12.2475 50.2253 12.2625V18.7595C50.2253 18.7745 50.2208 18.7896 50.2208 18.8047C50.2208 18.8204 50.2247 18.8348 50.2253 18.8498V18.8688H50.228C50.262 19.4516 50.742 19.9145 51.3333 19.9145C51.9246 19.9145 52.4026 19.4516 52.4366 18.8688H52.4438V12.1532H52.4366C52.4026 11.5704 51.9252 11.1048 51.3333 11.1048ZM51.3785 8.16345C50.7649 8.16345 50.2679 8.66045 50.2679 9.274C50.2679 9.88755 50.7649 10.3845 51.3785 10.3845C51.992 10.3845 52.489 9.88755 52.489 9.274C52.489 8.66045 51.992 8.16345 51.3785 8.16345Z" fill="white"/>
<path d="M73.3308 11.0524C72.7388 11.0524 72.2602 11.5166 72.2274 12.1007H72.2248V12.1178C72.2248 12.1328 72.2202 12.1479 72.2202 12.1629C72.2202 12.1787 72.2241 12.1931 72.2248 12.2081V18.7051C72.2248 18.7208 72.2202 18.7345 72.2202 18.7503C72.2202 18.766 72.2241 18.7804 72.2248 18.7954V18.8144H72.2274C72.2615 19.3972 72.7388 19.8628 73.3308 19.8628C73.9221 19.8628 74.402 19.3972 74.4361 18.8144H74.4407V18.7712C74.4407 18.764 74.4433 18.7568 74.4433 18.7496C74.4433 18.7424 74.4413 18.7352 74.4407 18.728V12.1839C74.4407 12.1767 74.4433 12.1695 74.4433 12.1623C74.4433 12.1551 74.4413 12.1479 74.4407 12.1407V12.1001H74.4361C74.4033 11.516 73.9227 11.0517 73.3308 11.0517V11.0524ZM73.3786 8.1084C72.765 8.1084 72.2661 8.60736 72.2661 9.22091C72.2661 9.83446 72.765 10.3315 73.3786 10.3315C73.9921 10.3315 74.4891 9.83446 74.4891 9.22091C74.4891 8.60736 73.9921 8.1084 73.3786 8.1084Z" fill="white"/>
<path d="M70.5135 18.4039C70.194 18.8381 69.143 19.3816 67.8295 19.2251C66.1853 19.0293 65.6798 17.4532 65.6798 17.4532C65.6798 17.4532 65.6817 17.4551 65.6824 17.4564L65.6798 17.4532V12.1479H65.6726C65.6385 11.5652 65.1592 11.0996 64.5653 11.0996C63.9714 11.0996 63.4901 11.5645 63.4554 12.1479H63.4528V12.1669C63.4528 12.182 63.4482 12.1971 63.4482 12.2121C63.4482 12.2272 63.4521 12.2422 63.4528 12.2573V17.4669C63.4515 17.4977 63.4528 17.5095 63.4528 17.5553V17.5625C63.4567 17.8925 63.5222 18.5428 63.9583 18.9232C64.4585 19.3593 65.4643 19.9899 67.1721 19.9761C68.591 19.9643 70.2241 19.1864 70.5679 18.3457C70.5777 18.3227 70.5843 18.2952 70.5895 18.2658C70.5731 18.3103 70.5476 18.3561 70.5129 18.4033L70.5135 18.4039Z" fill="white"/>
<path d="M87.1958 11.9142C86.6176 12.476 86.1841 13.1858 85.9562 13.9827C85.9916 14.1805 86.1612 15.2308 87.0609 16.0237C87.865 16.7322 88.4949 16.8082 88.9683 16.8999C89.0888 16.9234 89.3841 16.9365 89.7613 16.9444C89.7305 16.9431 89.4719 16.928 89.2257 16.7453C88.73 16.3767 88.7287 15.8626 88.7215 15.329C88.7156 14.8962 88.711 14.3998 88.711 14.2656C88.711 14.0082 88.6534 13.8504 88.2271 13.8504C87.8925 13.8504 87.6633 13.8832 87.4407 13.7987C87.2567 13.7293 87.1238 13.5879 87.0714 13.398C87.034 13.2644 87.0098 13.0476 87.0288 12.7595C87.0557 12.3503 87.1919 11.9273 87.1958 11.9142Z" fill="white"/>
<path d="M85.9558 13.9822C85.8386 14.3921 85.7737 14.8269 85.7737 15.2748C85.7737 17.8632 87.8724 19.9625 90.4615 19.9625C91.1824 19.9625 91.8654 19.7994 92.4757 19.5081C92.5399 19.4773 92.6813 19.4046 92.6813 19.4046C92.6813 19.4046 92.7225 19.5847 92.7278 19.7864C92.733 19.988 92.699 20.2015 92.699 20.2015C92.699 20.2015 93.0702 19.9147 93.2778 19.5781C93.378 19.4164 93.5836 19.0674 93.6936 18.6575C93.8167 18.1991 93.8377 17.8305 93.8128 17.5515C93.7696 17.0689 93.5234 16.9301 93.1429 16.9334C92.5353 16.9393 89.4413 16.9917 88.9685 16.9006C88.4951 16.809 87.8652 16.7337 87.0611 16.0252C86.1607 15.2315 85.9918 14.1799 85.9564 13.9835L85.9558 13.9822Z" fill="white"/>
<path d="M93.7315 18.793C94.3097 18.2312 94.7432 17.5214 94.971 16.7245C94.9357 16.5267 94.7661 15.4764 93.8664 14.6835C93.0623 13.975 92.4323 13.899 91.9589 13.8073C91.8384 13.7838 91.5431 13.7707 91.166 13.7628C91.1967 13.7641 91.4554 13.7792 91.7016 13.9619C92.1973 14.3305 92.1986 14.8446 92.2058 15.3782C92.2117 15.811 92.2163 16.3074 92.2163 16.4416C92.2163 16.699 92.2739 16.8568 92.7002 16.8568C93.0348 16.8568 93.264 16.824 93.4866 16.9085C93.6706 16.9779 93.8035 17.1193 93.8559 17.3092C93.8932 17.4428 93.9174 17.6596 93.8985 17.9477C93.8716 18.3569 93.7354 18.7799 93.7315 18.793Z" fill="white"/>
<path d="M94.9685 16.7243C95.0857 16.3144 95.1506 15.8796 95.1506 15.4317C95.1506 12.8433 93.0519 10.744 90.4628 10.744C89.7419 10.744 89.0589 10.9071 88.4486 11.1984C88.3845 11.2292 88.243 11.3019 88.243 11.3019C88.243 11.3019 88.2018 11.1218 88.1965 10.9201C88.1913 10.7185 88.2253 10.505 88.2253 10.505C88.2253 10.505 87.8541 10.7918 87.6465 11.1284C87.5463 11.2901 87.3407 11.6391 87.2307 12.049C87.1076 12.5074 87.0866 12.876 87.1115 13.155C87.1547 13.6376 87.4009 13.7764 87.7814 13.7731C88.389 13.7672 91.483 13.7148 91.9558 13.8059C92.4292 13.8975 93.0591 13.9728 93.8632 14.6813C94.7636 15.475 94.9325 16.5266 94.9679 16.723L94.9685 16.7243Z" fill="white"/>
<path d="M58.1298 13.3111C59.1644 13.3111 60.0216 14.0863 60.2069 15.1091C60.2311 15.2427 60.2475 15.3789 60.2475 15.5197C60.2475 15.8327 60.1833 16.1287 60.0707 16.3985C59.7446 17.1803 58.9994 17.7284 58.1292 17.7284C56.959 17.7284 56.0115 16.7396 56.0115 15.5197C56.0115 14.2998 56.9597 13.3111 58.1292 13.3111H58.1298ZM58.0512 11.0762C55.745 11.0762 53.8755 13.0511 53.8755 15.4863C53.8755 17.9215 55.7457 19.8938 58.0512 19.8938C58.78 19.8938 59.4682 19.7059 60.0713 19.3732V21.7397C60.0648 21.7888 60.0569 21.8366 60.0569 21.8877C60.0569 22.5012 60.5539 23.0002 61.1675 23.0002C61.7614 23.0002 62.2427 22.5313 62.2728 21.9446H62.2898V15.7463C62.2924 15.6919 62.299 15.6389 62.2996 15.5839C62.3009 15.4706 62.2937 15.3652 62.2898 15.2565V15.1085H62.2852C62.1274 12.2935 60.2376 11.0756 58.0519 11.0756L58.0512 11.0762Z" fill="white"/>
<path d="M80.3149 13.2946C81.1852 13.2946 81.9303 13.8427 82.2564 14.6245C82.3691 14.8943 82.4332 15.1903 82.4332 15.5033C82.4332 15.8163 82.3691 16.1123 82.2564 16.382C81.9303 17.1639 81.1852 17.7119 80.3149 17.7119C79.1448 17.7119 78.1973 16.7232 78.1973 15.5033C78.1973 14.2834 79.1454 13.2946 80.3149 13.2946ZM83.3519 8.02478C82.7384 8.02478 82.2414 8.52178 82.2414 9.13533C82.2414 9.18116 82.2505 9.22503 82.2558 9.26891V11.6491C81.6527 11.3165 80.9645 11.1285 80.2357 11.1285C77.9295 11.1285 76.06 13.1034 76.06 15.5386C76.06 17.9739 77.9301 19.9487 80.2357 19.9487C80.9586 19.9487 81.6494 19.8152 82.2558 19.5356V19.8361H84.4736V15.7652C84.4775 15.6565 84.4847 15.5511 84.4834 15.4378C84.4828 15.3828 84.4762 15.3298 84.4736 15.2754V9.0777H84.4566C84.4264 8.49166 83.9452 8.02478 83.3513 8.02478H83.3519Z" fill="white"/>
<path d="M69.4978 11.1632C68.8914 11.1632 68.399 11.6484 68.3872 12.2521C68.3872 12.2593 68.3846 12.2666 68.3846 12.2738C68.3846 12.281 68.3866 12.2882 68.3872 12.2954V17.3308C68.3872 17.3308 67.9322 18.0373 67.1169 18.0498C66.1183 18.0642 65.6868 17.4742 65.6868 17.4742C65.6868 17.4742 66.1904 19.0503 67.8287 19.2461C69.1377 19.4026 70.1847 18.8591 70.5029 18.425C70.5619 18.3444 70.5959 18.2678 70.6011 18.1984C70.63 17.7571 70.6064 12.4571 70.6057 12.2941C70.6057 12.2875 70.6083 12.2816 70.6083 12.2751C70.6083 12.2679 70.6064 12.2607 70.6057 12.2535V12.2083H70.6011C70.5658 11.6262 70.0884 11.1652 69.4978 11.1652V11.1632Z" fill="white"/>
</g>
<defs>
<clipPath id="clip0_1847_2008">
<rect width="53.5716" height="17" fill="white" transform="translate(41.5801 6)"/>
</clipPath>
</defs>
</svg>
