<svg width="17" height="17" viewBox="0 0 17 17" fill="none" xmlns="http://www.w3.org/2000/svg">
<path d="M8.49986 0.00012207C3.80458 0.00012207 0 3.8047 0 8.49998C0 13.1953 3.80458 17.0001 8.49986 17.0001C13.1951 17.0001 17 13.1955 17 8.49998C17 3.80442 13.1954 0.00012207 8.49986 0.00012207ZM8.49986 0.706944C12.7951 0.706944 16.2929 4.20085 16.2929 8.49998C16.2929 10.4003 15.6105 12.1412 14.4786 13.4938C13.6613 13.1587 11.7854 12.509 10.6822 12.182C10.5841 12.1533 10.572 12.1451 10.572 11.7448C10.572 11.4139 10.7069 11.0787 10.8416 10.7925C10.9889 10.4861 11.1565 9.96704 11.2178 9.50117C11.3896 9.30099 11.6266 8.9085 11.7736 8.15669C11.9044 7.49457 11.8431 7.25362 11.7573 7.0287C11.7492 7.00424 11.7368 6.97978 11.7329 6.95926C11.7002 6.80406 11.7452 5.99883 11.8597 5.37354C11.9373 4.9445 11.8391 4.03328 11.2507 3.27726C10.8787 2.79901 10.1637 2.21478 8.86002 2.13296H8.14476C6.86157 2.21478 6.15053 2.79901 5.77463 3.27726C5.18196 4.03328 5.08383 4.9445 5.16171 5.37354C5.27614 5.99883 5.32113 6.80378 5.28851 6.95926C5.28036 6.98793 5.27221 7.00818 5.26405 7.03264C5.1783 7.25756 5.11279 7.49851 5.24775 8.16063C5.39901 8.91272 5.6318 9.30493 5.80359 9.50511C5.86488 9.97098 6.03667 10.4858 6.17977 10.7965C6.28605 11.0214 6.33497 11.3278 6.33497 11.7611C6.33497 12.1657 6.31866 12.1699 6.22869 12.1983C5.08046 12.5374 3.26195 13.1913 2.53433 13.5059C1.39424 12.1491 0.707666 10.4042 0.707666 8.49998C0.706822 4.20507 4.20495 0.706944 8.49986 0.706944Z" fill="#899199"/>
</svg>
